<svg width="38" height="38" fill="none" xmlns="http://www.w3.org/2000/svg"><path d="M16.39 1.35a3.2 3.2 0 0 1 5.22 0 3.2 3.2 0 0 0 3.95 1.06c2-.92 4.32.41 4.52 2.61a3.2 3.2 0 0 0 2.9 2.9 3.2 3.2 0 0 1 2.6 4.52 3.2 3.2 0 0 0 1.07 3.95 3.2 3.2 0 0 1 0 5.22 3.2 3.2 0 0 0-1.06 3.95 3.2 3.2 0 0 1-2.61 4.52 3.2 3.2 0 0 0-2.9 2.9 3.2 3.2 0 0 1-4.52 2.6 3.2 3.2 0 0 0-3.95 1.07 3.2 3.2 0 0 1-5.22 0 3.2 3.2 0 0 0-3.95-1.06 3.2 3.2 0 0 1-4.52-2.61 3.2 3.2 0 0 0-2.9-2.9 3.2 3.2 0 0 1-2.6-4.52 3.2 3.2 0 0 0-1.07-3.95 3.2 3.2 0 0 1 0-5.22 3.2 3.2 0 0 0 1.06-3.95 3.2 3.2 0 0 1 2.61-4.52 3.2 3.2 0 0 0 2.9-2.9 3.2 3.2 0 0 1 4.52-2.6c1.4.64 3.06.2 3.95-1.07Z" fill="#2BE080"/></svg>